PathFileType	4	(X/Y/Z)	C:/Users/beibeiliu/ov580/test_trc\sequence.22_training_dense_right.trc
DataRate	CameraRate	NumFrames	NumMarkers	Units	OrigDataRate	OrigDataStartFrame	OrigNumFrames
120	120	10	19	mm	120	244	324
Frame#	Time	ThumbCMC			ThumbMCP			ThumbIP			ThumbTip			IndexMCP			IndexPIP			IndexTip			MiddleMCP			MiddlePIP			MiddleTip			RingMCP			RingPIP			RingTip			PinkyMCP			PinkyPIP			PinkyTip			BackHand1			BackHand2			BackHand3	
		X0	Y0	Z0	X1	Y1	Z1	X2	Y2	Z2	X3	Y3	Z3	X4	Y4	Z4	X5	Y5	Z5	X6	Y6	Z6	X7	Y7	Z7	X8	Y8	Z8	X9	Y9	Z9	X10	Y10	Z10	X11	Y11	Z11	X12	Y12	Z12	X13	Y13	Z13	X14	Y14	Z14	X15	Y15	Z15	X16	Y16	Z16	X17	Y17	Z17	X18	Y18	Z18	
243	2.025	232.817	59.6513	37.9522	221.055	66.6838	8.28649	219.31	73.2169	-14.9309	214.161	81.2059	-31.0612	269.996	68.3911	-19.7129	262.604	74.6486	-38.5463	251.946	77.9787	-58.7653	260.42	47.5946	-24.7619	231.952	51.7752	-34.3473	224.625	47.0146	-1.80073	249.795	34.0475	-25.3062	225.998	41.0637	-21.5174	225.267	37.7218	5.31601	246.444	18.2848	-19.6927	224.68	29.293	-15.5629	229.312	29.9476	6.4925	267.002	16.6321	17.7916	255.363	12.5372	45.0718	263.345	41.782	40.8849	
244	2.03333	237.636	61.4099	36.0111	223.666	66.0076	5.76299	217.146	73.7012	-17.7677	209.926	80.9161	-31.269	267.313	68.0736	-24.4532	257.342	73.6946	-45.6411	242.819	76.9188	-65.4482	259.334	51.8498	-29.2879	229.459	50.6393	-34.1479	227.351	48.5884	-1.03332	249.002	32.4713	-29.297	223.799	36.5822	-22.5702	230.553	37.7214	8.44971	245.952	16.6294	-22.5342	225.303	29.0829	-15.0445	235.07	29.6871	11.0711	272.567	22.67	17.6945	263.065	16.3023	42.7635	270.346	47.1839	32.5663	
245	2.04167	246.106	65.227	33.5271	227.601	69.5804	5.51253	219.117	73.7731	-12.8711	209.606	78.4044	-30.0626	267.244	69.4174	-27.8901	254.533	75.7359	-46.4761	236.279	74.0579	-67.398	256.892	49.5745	-35.7017	228.599	51.623	-34.8296	226.564	50.3134	-2.94615	248.424	30.8949	-30.5754	224.492	40.3491	-19.4069	230.924	38.3718	5.52921	242.433	17.7271	-24.1639	226.892	29.4493	-13.1494	238.516	34.32	9.40663	276.675	24.8202	8.86515	272.275	20.6883	40.408	275.634	49.9411	29.7828	
246	2.05	252.256	69.9514	29.8737	230.443	73.3002	5.68988	220.226	74.3995	-12.4799	209.895	78.9752	-30.3504	265.834	69.1763	-31.8788	249.739	74.7256	-52.0855	234.518	75.0168	-65.721	253.986	49.8237	-38.0316	225.604	50.4996	-32.2443	231.662	53.8172	0.200743	248.344	36.5172	-30.3267	223.183	39.8462	-16.9664	234.34	39.687	8.07858	244.439	19.2428	-21.7339	226.676	29.7852	-13.0143	241.876	36.5122	12.748	280.051	22.565	6.92056	278.315	21.2803	37.0104	281.36	52.1809	26.2359	
247	2.05833	256.587	72.7213	29.668	232.934	76.6197	7.52249	220.259	78.6712	-10.6144	208.81	84.5292	-24.2584	265.89	72.2275	-33.342	247.005	74.4394	-52.0434	227.083	77.699	-65.6466	253.807	52.5989	-36.3335	225.147	54.7521	-29.8187	231.458	55.9911	0.218298	243.169	34.4851	-30.8831	223.809	39.6299	-14.2573	237.78	42.4142	10.3591	240.651	18.5973	-21.0783	226.936	33.0474	-7.76525	241.175	35.2444	13.9965	279.724	23.8119	9.02658	281.729	26.4125	34.8369	286.615	53.1536	21.1595	
248	2.06667	260.318	71.4546	30.4325	236.366	76.6699	12.1874	222.204	79.9139	-8.86126	208.72	85.5681	-20.9537	264.489	71.0422	-34.245	247.23	71.0868	-49.7829	226.362	73.5126	-61.4331	250.885	49.2761	-37.0583	225.073	55.447	-28.0357	232.887	54.9926	2.32643	245.836	35.4278	-26.5429	225.54	43.3546	-14.4821	240.527	44.1851	12.4294	242.755	18.7314	-17.6128	227.833	32.0558	-3.84634	245.013	35.9342	18.5046	282.753	24.9245	7.93245	286.788	21.6306	35.3524	287.275	50.7713	20.2441	
249	2.075	265.809	69.6977	30.9894	238.606	76.3043	9.36832	224.661	78.4666	-5.35918	208.868	84.6791	-20.2961	262.538	67.5269	-36.1279	244.16	72.0642	-48.9824	223.231	71.9851	-57.6083	249.861	47.622	-36.8412	224.33	54.6923	-27.9841	233.898	53.0997	5.85827	241.753	34.9582	-25.9627	224.588	42.1578	-8.21637	241.344	44.3187	14.944	241.9	21.6571	-14.9079	226.47	28.8306	1.23391	248.117	36.6914	18.6538	284.219	26.6879	6.95116	289.09	24.158	36.5712	291.814	47.1325	20.1044	
250	2.08333	267.844	71.8138	26.5177	240.425	78.1592	14.5976	223.981	81.5088	-3.36254	211.074	82.4307	-15.3004	260.744	68.4393	-36.2377	243.421	67.0174	-46.6435	221.245	72.2257	-53.3251	251.384	46.6393	-32.7155	222.924	50.672	-23.3035	234.027	52.4761	7.35549	244.259	28.8884	-21.1638	224.287	39.2785	-5.31566	243.507	42.8331	18.6452	241.054	17.9861	-10.9307	228.104	31.4656	6.50309	248.783	35.7466	21.2643	285.737	24.6397	8.67567	291.158	25.2874	33.0781	293.219	50.5476	15.8405	
251	2.09167	271.624	72.5473	28.4699	244.623	74.5274	17.0874	227.197	78.3215	2.48118	210.944	83.2435	-12.8911	263.681	65.514	-31.8443	239.408	69.3317	-45.1395	213.486	68.0756	-50.0145	251.679	46.8995	-30.971	223.144	50.6905	-18.7519	234.273	54.0113	10.11	243.075	30.5601	-19.1554	224.362	37.7174	-0.616704	245.599	42.8372	19.7469	240.004	15.0358	-7.89221	230.602	30.9443	9.59221	251.807	37.2339	24.3069	286.904	22.8776	5.88141	292.644	20.3894	32.7225	294.621	47.8926	15.7468	
252	2.1	273.254	69.5145	29.7849	244.848	75.0912	16.1174	227.06	77.4547	4.22623	212.777	78.7239	-5.10361	260.905	56.97	-31.3047	236.097	62.4864	-41.7512	210.797	67.705	-44.8198	248.219	42.2309	-27.8144	222.038	45.7148	-15.7749	240.13	51.2046	14.2907	242.063	27.6399	-14.8714	224.895	36.5714	4.14078	247.739	41.141	23.5852	241.51	16.7979	-4.66738	230.22	27.2337	14.7106	252.135	32.6533	28.8651	287.116	17.1047	8.3503	296.05	17.342	34.3784	296.768	42.9477	16.5587	
